<svg version="1" xmlns="http://www.w3.org/2000/svg" width="933.333" height="933.333" viewBox="0 0 700 700"><path d="M19.1 4.2c-6.8.8-9.4 2.4-10.9 6.6-.9 2.9-.8 504.8.2 511.7.5 3.9 2.6 16.5 3.1 19.5 1.2 6.3 5.1 19.2 8.3 28 14.4 38.5 40.9 71.5 75.7 94.2 7.7 5 27.6 15.5 34 17.9 13.7 5.1 28.1 9 43 11.6 9.3 1.6 28.3 1.7 260.5 1.9 211.3.2 251 0 253.8-1.1 6.8-2.9 6.3 18.3 5.9-263.3-.3-187.1-.7-256.2-1.5-260.2-.6-3-1.4-7-1.7-8.9-1.1-7.2-5.6-23.3-8.9-31.7C665 89.7 640 58.8 602.8 34.3c-11.4-7.6-34.1-18.2-45.3-21.3-1.6-.5-6.4-1.8-10.5-2.9-10-2.8-24-4.9-37.9-5.7-15.4-.9-481.9-1.1-490-.2zM515.5 43c2.8.4 7.2 1.1 9.9 1.4 22.2 3 51.6 16.4 71.6 32.5 19.3 15.5 37.6 40.6 46.5 63.6 3.9 10.2 8 25.4 9 33.5.4 3 1 6.4 1.2 7.5.3 1.1.6 108.7.7 239l.1 237.1-235-.1c-129.2 0-235.4-.3-236-.7-.5-.3-3.5-.9-6.5-1.3-3-.3-8.2-1.3-11.5-2.2-3.3-.8-6.8-1.6-7.7-1.8-.9-.2-5-1.5-9-3-33.6-12.1-62.9-36.2-81.7-67.3-9-15-17.5-38.9-19.6-55.2-.3-2.5-.9-5.9-1.2-7.5-.4-1.7-.7-109.5-.7-239.8L45.5 42l232.5.1c127.9 0 234.8.4 237.5.9z"/><path d="M326.8 127.5c-.2.1-3.7.5-7.8.9-19.6 1.6-37.8 7-53.9 15.8-37.5 20.5-63.4 56.3-74.1 102.3-3.8 16.6-4.5 24.5-4.4 50 .2 23.3.4 25.3 6 55 1.3 6.6 8.7 27.5 12.8 36 17.9 36.8 48.1 62.1 85.6 71.4 12.3 3.1 29 4.8 44.1 4.5 28.4-.5 54.7-11.2 75.4-30.6 6.7-6.2 18.3-20.8 19.2-24.1.3-.9 1.1-1.7 1.8-1.7.9 0 1.2 7 .9 32.2-.2 17.8-.5 33.4-.7 34.8-.3 1.4-.7 4.1-1 6-1.8 10.8-7.7 24.7-14.2 33.5-9.4 12.6-27.1 22.3-45.5 25-2.5.4-5.8.9-7.5 1.2-8.2 1.4-33.4.4-45.9-1.8-23.1-4.1-41.4-20-46.7-41-1-3.8-1.7-4.9-3.3-5-10.3-.4-67.7-.1-69 .4-1 .4-1.5 1.1-1.2 1.5.3.5.8 3.1 1.1 5.8.7 5 3.9 17.7 5.7 22.3 6.9 17.3 20.1 33.2 38.1 45.9 5.1 3.6 16.8 9.7 27.2 14.2 3.7 1.7 19 6 24.5 7 9.2 1.6 12.4 2.2 15 2.5 17.4 2.6 57.8 2.6 73-.1 1.4-.2 4.1-.7 6-1 3.1-.5 12.8-2.6 18.4-3.9 5.6-1.3 19.1-6.3 26.6-9.8 23.5-10.9 42.8-28.8 54.7-50.7 6.2-11.5 13.2-34 14.8-47.5.3-2.8.8-7 1.2-9.5.6-4.3 1.2-329.4.6-331.5-.2-.7-13-1-36.1-1h-35.7l-.1 21.8c-.2 19.4-.8 25.7-2.1 22-1.1-3.1-8.4-14-12.8-19.1-13.9-16.2-37.7-28.4-63-32.2-6.2-.9-27-2-27.7-1.5zm31.7 58c7.7.8 20.8 4.6 26 7.5 13.4 7.5 24.7 18.4 31.4 30.4 4.3 7.6 10.5 22.6 11.4 27.6.3 1.4 1.2 5.9 2 10 7.1 34.7 1.5 78.2-13.6 105-10.7 19.1-27.9 32.8-48 38.2-6.6 1.8-10.9 2.2-22.2 2.2-7.7 0-16-.3-18.4-.8-12.6-2.2-27.1-10-37.2-20-9.1-9.1-11.2-11.9-16.8-22.6-10-19.3-14.5-39-14.5-64 0-10.1 1-25.6 1.8-26.9.2-.3.6-2.9 1-5.6.3-2.8 1-6.5 1.5-8.3.5-1.7.8-3.2.6-3.2-.5 0 4.9-15.6 7.4-21.3 4-9.2 10.6-19.2 17.1-25.8 13.6-14 28.3-21.1 46.5-22.6 3.9-.3 7.1-.6 7.2-.7.5-.4 9.8.1 16.8.9z"/></svg>